# xmcd
#
# Track frame offsets:
#	150
#	15826
#	29803
#	42029
#	62474
#	73611
#	86248
#	96448
#	106433
#	120494
#	134729
#	150878
#
# Disc length: 2222 seconds
#
# Revision: 1
# Processed by: cddbd v1.5.1PL2 Copyright (c) Steve Scherf et al.
# Submitted via: audiograbber 1.83.01
#
DISCID=9908ac0c
DTITLE=Billie Jo Spears - Billie Jo Spears
DYEAR=2001
DGENRE=Country
TTITLE0=Blanket On The Ground
TTITLE1=Witch Way You Goin' Billy
TTITLE2=What I've Got In Mind
TTITLE3=Just The Way You Are
TTITLE4=Tennessee Waltz
TTITLE5=57 Chevrolet
TTITLE6=I'm Gonna Be A Country Girl Again
TTITLE7=I Stayed Long Enough
TTITLE8=Blue Bayou
TTITLE9=Crying Time
TTITLE10=Fire and Rain
TTITLE11=Queen Of The Silver Dollar
EXTD=
EXTT0=
EXTT1=
EXTT2=
EXTT3=
EXTT4=
EXTT5=
EXTT6=
EXTT7=
EXTT8=
EXTT9=
EXTT10=
EXTT11=
PLAYORDER=
